<svg width="32" height="32" viewBox="0 0 32 32" fill="none" xmlns="http://www.w3.org/2000/svg">
  <!-- Background circle with gradient -->
  <circle cx="16" cy="16" r="15" fill="url(#gradient)" stroke="url(#borderGradient)" stroke-width="2"/>
  
  <!-- Music note symbol -->
  <path d="M12 8v12c0 1.1-.9 2-2 2s-2-.9-2-2 .9-2 2-2c.3 0 .6.1.9.2V10.8l6-1.8v7c0 1.1-.9 2-2 2s-2-.9-2-2 .9-2 2-2c.3 0 .6.1.9.2V8l-5 1.5z" fill="white"/>
  
  <!-- Small accent dots for musical feeling -->
  <circle cx="24" cy="12" r="1.5" fill="rgba(255,255,255,0.6)"/>
  <circle cx="22" cy="20" r="1" fill="rgba(255,255,255,0.4)"/>
  
  <defs>
    <!-- Main gradient -->
    <linearGradient id="gradient" x1="0%" y1="0%" x2="100%" y2="100%">
      <stop offset="0%" style="stop-color:#4ade80"/>
      <stop offset="50%" style="stop-color:#06b6d4"/>
      <stop offset="100%" style="stop-color:#8b5cf6"/>
    </linearGradient>
    
    <!-- Border gradient -->
    <linearGradient id="borderGradient" x1="0%" y1="0%" x2="100%" y2="100%">
      <stop offset="0%" style="stop-color:#22c55e"/>
      <stop offset="50%" style="stop-color:#0891b2"/>
      <stop offset="100%" style="stop-color:#7c3aed"/>
    </linearGradient>
  </defs>
</svg>